<?xml version="1.0" standalone="no"?>
<!DOCTYPE svg PUBLIC "-//W3C//DTD SVG 20010904//EN"
 "http://www.w3.org/TR/2001/REC-SVG-20010904/DTD/svg10.dtd">
<svg version="1.0" xmlns="http://www.w3.org/2000/svg"
 width="100.000000pt" height="100.000000pt" viewBox="0 0 100.000000 100.000000"
 preserveAspectRatio="xMidYMid meet">
<metadata>
Created by potrace 1.14, written by Peter Selinger 2001-2017
</metadata>
<g transform="translate(0.000000,100.000000) scale(0.100000,-0.100000)"
fill="#000000" stroke="none">
<path d="M154 976 c-54 -25 -108 -81 -132 -135 -22 -53 -22 -629 0 -682 22
-50 74 -106 122 -132 39 -21 54 -22 347 -25 305 -3 306 -3 360 21 64 28 105
67 130 122 17 36 19 71 19 353 0 291 -1 316 -20 356 -26 58 -98 121 -156 135
-29 7 -147 11 -333 11 -278 -1 -289 -2 -337 -24z m343 -365 c69 -86 128 -157
132 -159 4 -1 8 62 8 140 1 79 2 151 2 160 1 14 9 16 47 13 73 -5 84 -22 84
-129 1 -91 12 -126 40 -126 7 0 1 -12 -14 -26 -24 -25 -26 -33 -26 -114 0
-110 -13 -130 -83 -134 l-48 -3 -130 163 c-72 90 -132 164 -133 164 -1 0 -1
-69 -1 -152 1 -84 0 -158 -2 -164 -2 -6 -24 -10 -50 -9 -69 2 -83 25 -83 137
0 83 -2 90 -26 113 -20 19 -23 25 -11 25 27 0 37 34 37 122 0 115 12 130 103
134 25 2 43 -16 154 -155z"/>
</g>
</svg>
