<svg
        viewBox="0 0 100 100"
        xmlns="http://www.w3.org/2000/svg"
        fill-rule="evenodd"
        clip-rule="evenodd"
        stroke-linejoin="round"
        stroke-miterlimit="2"
        class="h-8 w-auto sm:h-10"
        aria-hidden="true"
>
    <g transform="translate(-1641.886 -310)">
        <path fill="none" d="M1642.22 310h531.337v100H1642.22z"></path>
        <clipPath id="a1">
            <path d="M1642.22 310h531.337v100H1642.22z"></path>
        </clipPath>
        <g clip-path="url(#a1)">
            <g transform="matrix(.09766 0 0 .09766 1642.4300256 310.0000256)">
                <clipPath id="b">
                    <path
                            d="M1024 256C1024 114.71 909.29 0 768 0H256C114.71 0 0 114.71 0 256v512c0 141.29 114.71 256 256 256h512c141.29 0 256-114.71 256-256V256z"
                    ></path>
                </clipPath>
                <g clip-path="url(#b)">
                    <path
                            d="M1024 0H0v1024h1024V0zM843 511.86v1.1c0 .26-.19.47-.45.49-33.36 3.13-59.48 30.24-59.48 64.41v136.95c0 9.56-2.01 18.8-5.64 27.23-10.35 24.07-33.84 41.57-61.16 41.57h-69.2l-.48-.6-269.18-337.33v337.93h-69.68c-36.89 0-66.8-29.91-66.8-66.8V577.86c0-34.17-26.11-61.28-59.48-64.41-.25-.02-.45-.23-.45-.49v-1.1c0-.25.19-.46.45-.49 33.24-3.24 59.22-31.02 59.22-65.11V307.19c0-9.29 1.9-18.14 5.33-26.18 10.18-23.88 33.87-40.62 61.47-40.62h69.66l.28.35 269.18 337.34V240.39h69.94c36.89 0 66.8 29.91 66.8 66.8v139.07c0 34.09 25.98 61.87 59.22 65.11.26.03.45.24.45.49z"
                            fill="#fff"
                    ></path>
                </g>
            </g>
        </g>
    </g>
</svg>